# xmcd CD database file
#
# Track frame offsets:
#	182
#	24525
#	43717
#	62102
#	77730
#	95602
#	111847
#	131520
#	157255
#	176247
#	198197
#	223077
#	239525
#
# Disc length: 3457 seconds
#
# Revision: 0
# Processed by: cddbd v1.5.1PL0 Copyright (c) Steve Scherf et al.
# Submitted via: CDex 1.51
#
DISCID=bd0d7f0d
DTITLE=Various Artist - Hit Singles 1989
DYEAR=1995
DGENRE=Pop
TTITLE0=Phil Collins/Another Day In Paradise
TTITLE1=Janet Jackson/Miss You Much
TTITLE2=Madonna/Express Yourself
TTITLE3=Kaoma/Lambada
TTITLE4=Bangles/Eternal Flame
TTITLE5=Linda Ronstadt With Aaron Neville/Don't Know Much
TTITLE6=Milli Vanilli/Blame It On The Rain
TTITLE7=Bon Jovi/I'll Be There For You
TTITLE8=Paula Abdul/Straight Up
TTITLE9=Boby Brown/My Prerigative
TTITLE10=Roxette/Listen Your Heart
TTITLE11=Fine Young Cannibals/She Drives Me Crazy
TTITLE12=Richard Marx/Right Here Wating
EXTD=YEAR: 1995
EXTT0=
EXTT1=
EXTT2=
EXTT3=
EXTT4=
EXTT5=
EXTT6=
EXTT7=
EXTT8=
EXTT9=
EXTT10=
EXTT11=
EXTT12=
PLAYORDER=
